<?xml version="1.0" encoding="UTF-8"?>
<svg id="Layer_2" data-name="Layer 2" xmlns="http://www.w3.org/2000/svg" xmlns:xlink="http://www.w3.org/1999/xlink" viewBox="0 0 173.04 172.87">
  <defs>
    <style>
      .cls-1 {
        fill: #fc0;
      }

      .cls-2 {
        clip-path: url(#clippath-21);
      }

      .cls-3 {
        clip-path: url(#clippath-6);
      }

      .cls-4 {
        clip-path: url(#clippath-7);
      }

      .cls-5 {
        clip-path: url(#clippath-17);
      }

      .cls-6 {
        clip-path: url(#clippath-31);
      }

      .cls-7 {
        clip-path: url(#clippath-15);
      }

      .cls-8 {
        clip-path: url(#clippath-33);
      }

      .cls-9 {
        clip-path: url(#clippath-18);
      }

      .cls-10 {
        clip-path: url(#clippath-4);
      }

      .cls-11 {
        clip-path: url(#clippath-22);
      }

      .cls-12 {
        clip-path: url(#clippath-23);
      }

      .cls-13 {
        clip-path: url(#clippath-9);
      }

      .cls-14 {
        clip-path: url(#clippath-10);
      }

      .cls-15 {
        clip-path: url(#clippath-25);
      }

      .cls-16 {
        clip-path: url(#clippath-27);
      }

      .cls-17 {
        clip-path: url(#clippath-11);
      }

      .cls-18 {
        fill: none;
      }

      .cls-19 {
        clip-path: url(#clippath-28);
      }

      .cls-20 {
        fill: #0c861c;
      }

      .cls-21 {
        clip-path: url(#clippath-1);
      }

      .cls-22 {
        fill: #ed234f;
      }

      .cls-23 {
        fill: #ff8200;
      }

      .cls-24 {
        fill: #840000;
      }

      .cls-25 {
        clip-path: url(#clippath-5);
      }

      .cls-26 {
        clip-path: url(#clippath-20);
      }

      .cls-27 {
        fill: #1800ad;
      }

      .cls-28 {
        clip-path: url(#clippath-8);
      }

      .cls-29 {
        clip-path: url(#clippath-3);
      }

      .cls-30 {
        clip-path: url(#clippath-26);
      }

      .cls-31 {
        clip-path: url(#clippath-12);
      }

      .cls-32 {
        clip-path: url(#clippath-14);
      }

      .cls-33 {
        clip-path: url(#clippath-30);
      }

      .cls-34 {
        clip-path: url(#clippath-19);
      }

      .cls-35 {
        clip-path: url(#clippath-32);
      }

      .cls-36 {
        fill: #2bb4ee;
      }

      .cls-37 {
        clip-path: url(#clippath-16);
      }

      .cls-38 {
        clip-path: url(#clippath-2);
      }

      .cls-39 {
        clip-path: url(#clippath-29);
      }

      .cls-40 {
        fill: #7adb37;
      }

      .cls-41 {
        clip-path: url(#clippath-13);
      }

      .cls-42 {
        clip-path: url(#clippath-24);
      }

      .cls-43 {
        clip-path: url(#clippath);
      }
    </style>
    <clipPath id="clippath">
      <rect class="cls-18" width="86.94" height="81.37"/>
    </clipPath>
    <clipPath id="clippath-1">
      <path class="cls-18" d="M3.59,15.07c-7.36,14.41-2.07,28.43,4.13,35.87l18.34,21.95c4.42,5.3,10.98,8.35,17.88,8.32,6.9-.03,13.44-3.14,17.82-8.48l17.76-21.64c5.77-8.01,8.07-16.5,6.75-25.96-1.69-13.09-10.33-23.23-21.01-24.69-6.54-.83-12.86,1.43-17.8,6.55-1.33,1.38-2.52,2.92-3.55,4.59-1.22-1.9-2.66-3.65-4.3-5.19C33.95,1.02,26.72-.98,19.78.55,13.21,2.13,7.31,7.42,3.59,15.07Z"/>
    </clipPath>
    <clipPath id="clippath-2">
      <rect class="cls-18" y="-.17" width="87.92" height="81.75"/>
    </clipPath>
    <clipPath id="clippath-3">
      <rect class="cls-18" x=".07" y="0" width="86.67" height="81.37"/>
    </clipPath>
    <clipPath id="clippath-4">
      <path class="cls-18" d="M3.59,15.07c-7.36,14.41-2.07,28.43,4.13,35.87l18.34,21.95c4.42,5.3,10.98,8.35,17.88,8.32,6.9-.03,13.44-3.14,17.82-8.48l17.76-21.64c5.77-8.01,8.07-16.5,6.75-25.96-1.69-13.09-10.33-23.23-21.01-24.69-6.54-.83-12.86,1.43-17.8,6.55-1.33,1.38-2.52,2.92-3.55,4.59-1.22-1.9-2.66-3.65-4.3-5.19C33.95,1.02,26.72-.98,19.78.55,13.21,2.13,7.31,7.42,3.59,15.07Z"/>
    </clipPath>
    <clipPath id="clippath-5">
      <rect class="cls-18" x="85.89" y=".37" width="86.55" height="81.65"/>
    </clipPath>
    <clipPath id="clippath-6">
      <path class="cls-18" d="M141.42,7.87l28.81,51.98c2.56,4.63,2.49,10.26-.19,14.82-2.69,4.56-7.58,7.35-12.87,7.35h-56.08c-5.29,0-10.18-2.8-12.87-7.35-2.68-4.56-2.76-10.19-.19-14.82L116.83,7.87c2.48-4.46,7.19-7.24,12.29-7.24s9.82,2.77,12.29,7.24Z"/>
    </clipPath>
    <clipPath id="clippath-7">
      <rect class="cls-18" x="84.83" y="-.17" width="87.92" height="83.29"/>
    </clipPath>
    <clipPath id="clippath-8">
      <rect class="cls-18" x="85.89" y=".63" width="86.55" height="81.39"/>
    </clipPath>
    <clipPath id="clippath-9">
      <path class="cls-18" d="M141.42,7.87l28.81,51.98c2.56,4.63,2.49,10.26-.19,14.82-2.69,4.56-7.58,7.35-12.87,7.35h-56.08c-5.29,0-10.18-2.8-12.87-7.35-2.68-4.56-2.76-10.19-.19-14.82L116.83,7.87c2.48-4.46,7.19-7.24,12.29-7.24s9.81,2.77,12.29,7.24Z"/>
    </clipPath>
    <clipPath id="clippath-10">
      <rect class="cls-18" x=".17" y="90.37" width="82.5" height="82.5"/>
    </clipPath>
    <clipPath id="clippath-11">
      <path class="cls-18" d="M25.52,90.37h31.79c14,0,25.35,11.36,25.35,25.36v31.79c0,14-11.35,25.35-25.35,25.35h-31.79c-14,0-25.35-11.35-25.35-25.35v-31.79c0-14,11.35-25.36,25.35-25.36Z"/>
    </clipPath>
    <clipPath id="clippath-12">
      <rect class="cls-18" y="89.29" width="83.29" height="84.83"/>
    </clipPath>
    <clipPath id="clippath-13">
      <rect class="cls-18" x=".17" y="90.37" width="82.5" height="82.5"/>
    </clipPath>
    <clipPath id="clippath-14">
      <path class="cls-18" d="M25.52,90.37h31.79c14,0,25.35,11.36,25.35,25.36v31.79c0,14-11.35,25.35-25.35,25.35h-31.79c-14,0-25.35-11.35-25.35-25.35v-31.79c0-14,11.35-25.36,25.35-25.36Z"/>
    </clipPath>
    <clipPath id="clippath-15">
      <rect class="cls-18" x="90.54" y="90.37" width="82.5" height="82.5"/>
    </clipPath>
    <clipPath id="clippath-16">
      <path class="cls-18" d="M131.79,90.37c-22.78,0-41.25,18.47-41.25,41.25s18.47,41.25,41.25,41.25,41.25-18.47,41.25-41.25-18.47-41.25-41.25-41.25Z"/>
    </clipPath>
    <clipPath id="clippath-17">
      <rect class="cls-18" x="89.46" y="89.29" width="84.83" height="84.83"/>
    </clipPath>
    <clipPath id="clippath-18">
      <rect class="cls-18" x="90.54" y="90.37" width="82.5" height="82.5"/>
    </clipPath>
    <clipPath id="clippath-19">
      <path class="cls-18" d="M131.79,90.37c-22.78,0-41.25,18.47-41.25,41.25s18.47,41.25,41.25,41.25,41.25-18.47,41.25-41.25-18.47-41.25-41.25-41.25Z"/>
    </clipPath>
    <clipPath id="clippath-20">
      <rect class="cls-18" x="98.6" y="52.27" width="14" height="13.88"/>
    </clipPath>
    <clipPath id="clippath-21">
      <rect class="cls-18" x="145.79" y="52.27" width="13.83" height="12.61"/>
    </clipPath>
    <clipPath id="clippath-22">
      <rect class="cls-18" x="120.61" y="60.85" width="16.94" height="8.49"/>
    </clipPath>
    <clipPath id="clippath-23">
      <rect class="cls-18" x="14.8" y="26.05" width="11.42" height="12.34"/>
    </clipPath>
    <clipPath id="clippath-24">
      <rect class="cls-18" x="55.53" y="24.86" width="16.89" height="11.99"/>
    </clipPath>
    <clipPath id="clippath-25">
      <rect class="cls-18" x="15.07" y="113.97" width="17.32" height="15.42"/>
    </clipPath>
    <clipPath id="clippath-26">
      <rect class="cls-18" x="43.19" y="113.32" width="20.05" height="14.54"/>
    </clipPath>
    <clipPath id="clippath-27">
      <rect class="cls-18" x="21.59" y="129.4" width="44.73" height="20.8"/>
    </clipPath>
    <clipPath id="clippath-28">
      <rect class="cls-18" x="143.45" y="117.06" width="17.62" height="9.25"/>
    </clipPath>
    <clipPath id="clippath-29">
      <rect class="cls-18" x="102.29" y="115.92" width="18.02" height="8.84"/>
    </clipPath>
    <clipPath id="clippath-30">
      <rect class="cls-18" x="126.48" y="129.4" width="13.88" height="17.65"/>
    </clipPath>
    <clipPath id="clippath-31">
      <rect class="cls-18" x="124.94" y="127.85" width="15.42" height="19.19"/>
    </clipPath>
    <clipPath id="clippath-32">
      <rect class="cls-18" x="126.48" y="140.19" width="12.34" height="6.85"/>
    </clipPath>
    <clipPath id="clippath-33">
      <rect class="cls-18" x="126.48" y="140.19" width="13.88" height="6.85"/>
    </clipPath>
  </defs>
  <g id="Layer_1-2" data-name="Layer 1">
    <g>
      <g class="cls-43">
        <g class="cls-21">
          <g class="cls-38">
            <g class="cls-29">
              <g class="cls-10">
                <path class="cls-36" d="M.17,0h86.44v94.54H.17V0Z"/>
              </g>
            </g>
          </g>
        </g>
      </g>
      <g class="cls-25">
        <g class="cls-3">
          <g class="cls-4">
            <g class="cls-28">
              <g class="cls-13">
                <path class="cls-1" d="M75.74-14.3h106.86v96.32h-106.86V-14.3Z"/>
              </g>
            </g>
          </g>
        </g>
      </g>
      <g class="cls-14">
        <g class="cls-17">
          <g class="cls-31">
            <g class="cls-41">
              <g class="cls-32">
                <path class="cls-40" d="M.17,90.37h82.5v82.5H.17v-82.5Z"/>
              </g>
            </g>
          </g>
        </g>
      </g>
      <g class="cls-7">
        <g class="cls-37">
          <g class="cls-5">
            <g class="cls-9">
              <g class="cls-34">
                <path class="cls-22" d="M90.54,90.37h82.5v82.5h-82.5v-82.5Z"/>
              </g>
            </g>
          </g>
        </g>
      </g>
      <g class="cls-26">
        <path class="cls-23" d="M112.47,63.34c0,.22.02.39,0,.54-.09.64-.62,1.07-1.27,1.05-.61-.02-1.12-.49-1.19-1.12-.05-.51-.09-1.01-.16-1.51-.23-1.64-.64-3.22-1.4-4.71-.31-.61-.69-1.17-1.19-1.65-.29-.28-.6-.52-.98-.66-.44-.17-.88-.16-1.31.02-.49.2-.88.54-1.22.93-.48.54-.84,1.14-1.14,1.78-.56,1.16-.92,2.38-1.16,3.63-.16.81-.25,1.63-.31,2.46-.04.52-.32.89-.81,1.07-.47.17-.91.08-1.28-.26-.28-.26-.42-.6-.39-.98.15-2.12.54-4.19,1.34-6.18.4-.99.9-1.93,1.57-2.78.55-.7,1.2-1.31,1.99-1.74.63-.34,1.3-.53,2.01-.55.9-.02,1.71.24,2.46.71.66.41,1.21.95,1.68,1.56.72.93,1.25,1.98,1.66,3.08.51,1.38.83,2.81,1,4.27.04.37.08.74.11,1.03"/>
      </g>
      <g class="cls-2">
        <path class="cls-23" d="M152.62,52.27c.91.03,1.72.31,2.47.8s1.35,1.13,1.86,1.85c.71.99,1.22,2.08,1.62,3.22.48,1.39.78,2.82.94,4.28.04.39.08.79.11,1.18.02.44-.17.79-.52,1.04-.74.52-1.78.1-1.93-.79-.05-.33-.07-.67-.1-1-.16-1.51-.48-2.99-1.03-4.41-.25-.64-.55-1.27-.93-1.84-.3-.46-.64-.9-1.08-1.25-.15-.12-.32-.23-.49-.33-.61-.34-1.24-.33-1.85.02-.38.22-.69.51-.98.84-.49.58-.86,1.24-1.17,1.94-.47,1.06-.78,2.17-.98,3.31-.13.71-.22,1.43-.27,2.15-.01.14-.04.28-.07.4-.18.58-.75.93-1.36.84-.6-.09-1.05-.58-1.05-1.19,0-.31.03-.61.06-.93.13-1.26.36-2.5.72-3.72.34-1.13.78-2.23,1.39-3.24.48-.78,1.04-1.49,1.75-2.06.58-.47,1.22-.82,1.95-.98.31-.07.63-.1.95-.14"/>
      </g>
      <g class="cls-11">
        <path class="cls-23" d="M128.49,69.34c-2.04-.04-4.05-.94-5.68-2.69-1.08-1.16-1.77-2.54-2.14-4.07-.06-.27-.07-.53.02-.79.18-.5.64-.83,1.17-.83.53,0,.99.34,1.17.84.04.1.05.2.08.3.34,1.31.98,2.45,2,3.34,1.13.99,2.45,1.47,3.95,1.42,1.36-.04,2.55-.52,3.6-1.36,1.17-.93,1.94-2.13,2.39-3.55.03-.1.05-.2.1-.29.25-.62.9-.93,1.52-.74.62.2.99.83.83,1.47-.23.9-.6,1.74-1.08,2.54-.88,1.43-2.04,2.58-3.53,3.38-1.25.69-2.6,1.03-4.39,1.04"/>
      </g>
      <path class="cls-27" d="M17.94,28.78c-1.99.84-2.8,3.55-1.82,5.48.98,1.92,3.38,2.9,5.5,2.48.68-.13,1.36-.4,1.9-.84.95-.77,1.44-2.02,1.4-3.24-.02-.85-.32-1.65-.8-2.34-1.24-1.79-3.57-2.46-5.62-1.74l-.57.2Z"/>
      <g class="cls-12">
        <path class="cls-27" d="M20.64,37.58c-2.15,0-4.25-1.17-5.18-2.98-.59-1.16-.66-2.61-.19-3.91.45-1.21,1.29-2.13,2.37-2.6.02,0,.03-.01.05-.02l.57-.2c2.41-.84,5.07-.01,6.48,2.02.58.84.9,1.78.93,2.74.04,1.52-.58,2.96-1.68,3.84-.6.49-1.35.82-2.22.99-.37.07-.75.11-1.13.11h0ZM18.21,29.48c-.69.3-1.24.91-1.54,1.73-.33.91-.29,1.93.11,2.72.8,1.56,2.81,2.46,4.69,2.08.63-.12,1.17-.36,1.58-.69.72-.58,1.16-1.6,1.13-2.64-.02-.67-.25-1.33-.66-1.93-1.02-1.48-2.99-2.08-4.77-1.46l-.54.19Z"/>
      </g>
      <path class="cls-36" d="M17.32,30.05c-.34.66-.28,1.52.52,2.02.52.33,1.16.42,1.7.12.13-.07.24-.16.34-.27.32-.35.4-.87.27-1.33-.11-.39-.37-.74-.7-.99-.1-.08-.2-.13-.31-.17-.67-.28-1.48-.03-1.81.61Z"/>
      <path class="cls-27" d="M18.82,32.87c-.42,0-.86-.13-1.25-.37-1.07-.68-1.11-1.87-.69-2.68.44-.85,1.51-1.22,2.44-.84.17.07.31.15.43.24.43.34.74.77.87,1.25.19.64.04,1.33-.38,1.8-.13.14-.28.27-.46.37-.29.16-.62.24-.96.24h0ZM18.56,29.82c-.34,0-.65.17-.8.46-.22.42-.24,1,.35,1.37.4.26.84.3,1.19.11.08-.05.16-.11.21-.17.19-.2.25-.55.16-.86-.08-.27-.27-.53-.54-.74-.04-.03-.11-.07-.19-.1-.13-.05-.25-.07-.39-.07h0Z"/>
      <path class="cls-27" d="M40.75,42.86c-2.39,0-4.82-.99-6.59-2.73-.29-.28-.3-.76,0-1.05.29-.3.76-.3,1.05-.01,1.78,1.77,4.36,2.61,6.72,2.2,2.42-.42,4.55-2.2,5.29-4.43.13-.39.55-.6.95-.47.39.13.6.55.47.94-.92,2.74-3.51,4.92-6.45,5.43-.48.08-.95.12-1.44.12Z"/>
      <g class="cls-42">
        <path class="cls-27" d="M70.58,35.75c-.13,0-.25-.02-.37-.06-4.14-1.28-8.57-1.5-12.82-.62-.45.09-.9-.07-1.2-.42-.29-.34-.37-.82-.21-1.25,1.59-4.14,5.25-7.35,9.57-8.38.67-.16,1.34.25,1.49.92.16.67-.25,1.34-.92,1.49-2.77.66-5.22,2.43-6.77,4.8,3.89-.45,7.84-.08,11.59,1.08.65.2,1.02.9.81,1.55-.16.53-.66.87-1.18.87h0Z"/>
      </g>
      <path class="cls-40" d="M46.68,136.31s-4.25.17,1.01,6.89c5.26,6.71,13.61,6.58,16.64-.19,3.43-7.69-9.25-11.83-9.25-11.83l-8.4,5.13Z"/>
      <g class="cls-15">
        <path class="cls-20" d="M29.05,127.52c.27.48.77.74,1.28.74.26,0,.51-.06.75-.2.7-.41.95-1.31.54-2.02-3.09-5.35-13.77-10.6-14.21-10.83-.74-.36-1.62-.05-1.98.68-.36.74-.06,1.62.68,1.98,2.86,1.4,10.75,5.86,12.95,9.65Z"/>
      </g>
      <g class="cls-30">
        <path class="cls-20" d="M45.74,127.28c.42,0,.84-.17,1.13-.52,2.29-2.69,9.23-9.83,13.84-10.4.81-.1,1.38-.84,1.28-1.64-.1-.81-.85-1.39-1.65-1.28-6.69.83-15.36,11-15.72,11.43-.53.62-.45,1.55.17,2.08.28.22.61.34.95.34Z"/>
      </g>
      <g class="cls-16">
        <path class="cls-20" d="M56.17,129.63c-.52-.25-1.14-.17-1.58.2-14.9,12.47-28.92,3.69-29.51,3.31-.68-.44-1.6-.25-2.04.44-.45.68-.26,1.6.43,2.04.13.08,9.14,5.78,20.59,2.97.89,4.56,3.98,8.45,8.26,10.3.9.4,2.16.63,3.54.63,1.86,0,3.94-.4,5.74-1.34,2.41-1.26,3.95-3.28,4.45-5.86,1.37-7.18-9.41-12.47-9.88-12.69ZM63.13,141.77c-.33,1.68-1.3,2.95-2.91,3.8-2.49,1.3-5.65,1.11-6.73.62-3.5-1.51-5.98-4.71-6.6-8.45,1.15-.42,2.32-.94,3.5-1.55.84,1.21,3.35,4.55,6.54,6.1.2.1.43.16.64.16.55,0,1.08-.31,1.33-.84.36-.73.05-1.61-.68-1.97-2.42-1.17-4.47-3.81-5.27-4.94.92-.59,1.83-1.24,2.75-1.97,2.9,1.58,8.13,5.31,7.42,9.04Z"/>
      </g>
      <g class="cls-19">
        <path class="cls-24" d="M159.82,125.11c-.61,0-1.16-.42-1.3-1.04-.41-1.86-1.92-3.43-3.76-3.91-.84-.22-1.81-.25-2.89-.08-1.83.28-4.22,1.34-4.96,3.41-.25.69-1.01,1.05-1.7.8-.69-.25-1.05-1.01-.8-1.7,1.13-3.16,4.39-4.72,7.06-5.14,1.45-.22,2.78-.17,3.98.14,2.78.72,5.06,3.1,5.68,5.91.16.72-.3,1.42-1.02,1.58-.09.02-.19.03-.28.03Z"/>
      </g>
      <g class="cls-39">
        <path class="cls-24" d="M103.8,123.8c-.19,0-.38-.04-.56-.13-.67-.31-.95-1.1-.64-1.77,1.11-2.36,3.68-4.35,6.71-5.19,2.76-.77,5.47-.46,7.44.86,1.3.87,2.27,2.26,2.89,4.14.23.69-.14,1.45-.84,1.67-.69.23-1.45-.14-1.67-.84-.3-.9-.86-2.11-1.86-2.77-1.31-.89-3.23-1.07-5.24-.51-2.27.63-4.24,2.11-5.01,3.76-.23.48-.7.77-1.21.77Z"/>
      </g>
      <path class="cls-24" d="M137.31,133.64c-1.7,0-3.37-.77-4.49-2.04-1.16,1.4-3.19,1.96-4.95,1.98-.34,0-.7-.01-1.07-.05-2.86-.28-4.96-1.7-5.66-3.78-.14-.42.08-.87.51-1.01.42-.14.87.08,1.01.5.57,1.73,2.6,2.53,4.3,2.7.31.03.61.05.89.04,1.58-.02,3.62-.6,4.15-2.14.1-.3.38-.51.69-.53.33-.02.62.14.77.42.78,1.51,2.58,2.47,4.28,2.28.3-.04.61-.11.93-.22,1.32-.48,2.4-1.64,2.75-2.95.11-.42.55-.67.97-.57.43.11.68.55.57.98-.48,1.83-1.92,3.37-3.74,4.04-.44.16-.87.26-1.3.31-.2.02-.41.03-.61.03Z"/>
      <g class="cls-33">
        <path class="cls-24" d="M138.68,140.89c-.05.27-.11.52-.17.77-.37,1.38-1.04,2.71-2.11,3.66-1.02.9-2.33,1.33-3.69,1.14-1.03-.15-2-.6-2.88-1.16-1.1-.71-1.77-1.58-2.16-2.55-.67-1.63-.61-3.55-.7-5.52-.06-1.49-.09-2.99-.09-4.48.33.03.66.05.99.04,1.98-.03,4.24-.8,4.89-2.68.94,1.81,3.05,2.93,5.08,2.71.37-.04.75-.13,1.11-.26.23,2.56.27,5.77-.26,8.33Z"/>
      </g>
      <g class="cls-6">
        <path class="cls-24" d="M133.34,147.29c-.24,0-.49-.01-.74-.05-1.04-.15-2.11-.58-3.21-1.28-1.16-.75-1.98-1.71-2.47-2.93-.61-1.5-.67-3.19-.72-4.84-.01-.31-.02-.63-.04-.95-.06-1.43-.09-2.9-.09-4.51,0-.22.1-.44.26-.59.17-.15.39-.22.61-.2.31.03.61.05.9.04,1.58-.02,3.62-.6,4.15-2.13.1-.3.37-.51.69-.54.32-.02.61.14.77.43.78,1.51,2.58,2.46,4.28,2.28.3-.04.62-.11.93-.22.23-.08.49-.05.7.08.2.13.34.35.36.6.14,1.49.39,5.32-.27,8.56-.05.28-.12.55-.19.81-.45,1.69-1.26,3.1-2.35,4.06-1.04.9-2.28,1.38-3.59,1.38h0ZM127.67,133.58c0,1.27.04,2.45.08,3.6.02.33.03.64.04.97.05,1.57.1,3.05.6,4.28.37.9.98,1.62,1.86,2.19.89.57,1.75.92,2.56,1.04,1.1.15,2.18-.19,3.05-.95,1.07-.95,1.61-2.3,1.86-3.27.06-.22.11-.46.16-.7v-.02c.4-1.92.51-4.48.33-7.16-.1.02-.2.03-.3.04-1.91.21-3.85-.58-5.1-2.01-1.16,1.4-3.19,1.96-4.95,1.98h-.2Z"/>
      </g>
      <g class="cls-35">
        <path class="cls-22" d="M138.68,140.89c-.05.27-.11.52-.17.77-.37,1.38-1.04,2.71-2.11,3.66-1.02.9-2.33,1.33-3.69,1.14-1.03-.15-2-.6-2.88-1.16-1.1-.71-1.77-1.58-2.16-2.55.3-.14.6-.27.9-.4,1.22-.51,2.74-.9,3.78-.08.16.13.31.29.52.31.19.02.37-.08.54-.19,1.25-.77,2.63-1.4,4.1-1.52.39-.03.79-.02,1.18.03Z"/>
      </g>
      <g class="cls-8">
        <path class="cls-24" d="M133.34,147.03c-.23,0-.46-.02-.7-.05-1-.14-2.04-.56-3.09-1.24-1.12-.72-1.9-1.64-2.37-2.81-.11-.27.01-.56.27-.68.3-.14.61-.28.92-.4,1.92-.8,3.33-.8,4.32,0l.09.07c.05.04.13.11.17.12,0,0,.07-.04.17-.11,1.57-.96,2.98-1.49,4.34-1.6.42-.04.85-.02,1.29.02.14.02.27.1.36.22.08.11.12.27.1.4-.05.28-.12.55-.19.81-.43,1.64-1.22,2.99-2.27,3.92-.98.86-2.18,1.31-3.42,1.31ZM128.37,143c.4.75.97,1.36,1.75,1.85.92.6,1.82.96,2.66,1.08,1.17.16,2.34-.2,3.26-1.01,1.13-1,1.68-2.4,1.95-3.4l.04-.14c-.16,0-.33,0-.48.01-1.19.1-2.45.57-3.86,1.44-.16.1-.49.31-.87.27-.33-.04-.55-.22-.72-.36l-.07-.06c-.66-.52-1.72-.48-3.25.16-.13.05-.27.11-.4.17Z"/>
      </g>
    </g>
  </g>
</svg>